<svg xmlns="http://www.w3.org/2000/svg" width="48" height="48" viewBox="0 0 48 48" fill="none">
  <path d="M37.46 10.8199L34.9 12.8199L24 20.9199L13.1 12.7399L10.54 10.7399C9.93691 10.241 9.2007 9.93003 8.42257 9.84545C7.64445 9.76087 6.85861 9.90643 6.16241 10.2641C5.46621 10.6218 4.89025 11.1759 4.50588 11.8577C4.1215 12.5395 3.94561 13.3191 3.99999 14.0999V37.2799C3.99999 38.0013 4.28657 38.6932 4.79666 39.2033C5.30676 39.7134 5.99861 40 6.72 40H13.1V24.5599L24 32.74L34.9 24.5599V40H41.28C42.0014 40 42.6932 39.7134 43.2033 39.2033C43.7134 38.6932 44 38.0013 44 37.2799V14.0999C44.0376 13.3259 43.8494 12.5576 43.4585 11.8884C43.0676 11.2192 42.4907 10.678 41.7979 10.3306C41.1052 9.98318 40.3264 9.84447 39.5563 9.93134C38.7862 10.0182 38.0579 10.3269 37.46 10.8199Z" fill="#F0F0F0"/>
</svg>