<svg xmlns="http://www.w3.org/2000/svg" width="48" height="48" viewBox="0 0 48 48" fill="none">
  <path d="M26.056 4.00197C27.5155 3.99637 28.9749 4.01104 30.434 4.04597L30.822 4.05997C31.27 4.07597 31.712 4.09597 32.246 4.11997C34.374 4.21997 35.826 4.55597 37.1 5.04997C38.42 5.55797 39.532 6.24597 40.644 7.35797C41.6608 8.35719 42.4477 9.56587 42.95 10.9C43.444 12.174 43.78 13.628 43.88 15.756C43.904 16.288 43.924 16.732 43.94 17.18L43.952 17.568C43.9875 19.0264 44.0029 20.4852 43.998 21.944L44 23.436V26.056C44.0049 27.5155 43.9896 28.9749 43.954 30.434L43.942 30.822C43.926 31.27 43.906 31.712 43.882 32.246C43.782 34.374 43.442 35.826 42.95 37.1C42.4493 38.4355 41.6622 39.6452 40.644 40.644C39.6439 41.6606 38.4346 42.4475 37.1 42.95C35.826 43.444 34.374 43.78 32.246 43.88C31.712 43.904 31.27 43.924 30.822 43.94L30.434 43.952C28.975 43.9875 27.5155 44.0029 26.056 43.998L24.564 44H21.946C20.4865 44.0049 19.0271 43.9896 17.568 43.954L17.18 43.942C16.7052 43.9248 16.2305 43.9048 15.756 43.882C13.628 43.782 12.176 43.442 10.9 42.95C9.56537 42.4487 8.35648 41.6616 7.358 40.644C6.34009 39.6446 5.55245 38.4351 5.05 37.1C4.556 35.826 4.22 34.374 4.12 32.246C4.09773 31.7714 4.07773 31.2967 4.06 30.822L4.05 30.434C4.01313 28.9749 3.99646 27.5155 4 26.056V21.944C3.99442 20.4852 4.00909 19.0264 4.044 17.568L4.058 17.18C4.074 16.732 4.094 16.288 4.118 15.756C4.218 13.626 4.554 12.176 5.048 10.9C5.55075 9.56521 6.33993 8.35686 7.36 7.35997C8.35779 6.34148 9.56593 5.55312 10.9 5.04997C12.176 4.55597 13.626 4.21997 15.756 4.11997L17.18 4.05997L17.568 4.04997C19.0264 4.01312 20.4852 3.99645 21.944 3.99997L26.056 4.00197ZM24 14.002C22.675 13.9832 21.3595 14.228 20.13 14.7221C18.9004 15.2162 17.7813 15.9497 16.8377 16.8801C15.8941 17.8104 15.1448 18.9191 14.6334 20.1415C14.122 21.364 13.8586 22.6759 13.8586 24.001C13.8586 25.3261 14.122 26.638 14.6334 27.8605C15.1448 29.0829 15.8941 30.1915 16.8377 31.1219C17.7813 32.0522 18.9004 32.7858 20.13 33.2798C21.3595 33.7739 22.675 34.0187 24 34C26.6522 34 29.1957 32.9464 31.0711 31.071C32.9464 29.1957 34 26.6521 34 24C34 21.3478 32.9464 18.8043 31.0711 16.9289C29.1957 15.0535 26.6522 14.002 24 14.002ZM24 18.002C24.797 17.9873 25.589 18.1316 26.3296 18.4264C27.0702 18.7212 27.7447 19.1607 28.3136 19.7191C28.8824 20.2775 29.3344 20.9436 29.6429 21.6787C29.9514 22.4137 30.1104 23.2028 30.1105 24C30.1107 24.7971 29.952 25.5863 29.6437 26.3214C29.3354 27.0565 28.8837 27.7229 28.315 28.2815C27.7463 28.84 27.072 29.2797 26.3315 29.5748C25.5909 29.8699 24.799 30.0144 24.002 30C22.4107 30 20.8846 29.3678 19.7594 28.2426C18.6341 27.1174 18.002 25.5913 18.002 24C18.002 22.4087 18.6341 20.8826 19.7594 19.7573C20.8846 18.6321 22.4107 18 24.002 18L24 18.002ZM34.5 11.002C33.8548 11.0278 33.2446 11.3023 32.7972 11.7679C32.3498 12.2336 32.1 12.8542 32.1 13.5C32.1 14.1457 32.3498 14.7664 32.7972 15.232C33.2446 15.6977 33.8548 15.9722 34.5 15.998C35.163 15.998 35.7989 15.7346 36.2678 15.2657C36.7366 14.7969 37 14.161 37 13.498C37 12.8349 36.7366 12.199 36.2678 11.7302C35.7989 11.2614 35.163 10.998 34.5 10.998V11.002Z" fill="#F0F0F0"/>
</svg>